<svg xmlns="http://www.w3.org/2000/svg" xmlns:xlink="http://www.w3.org/1999/xlink" viewBox="0,0,256,256" width="24px" height="24px"><defs><clipPath id="clip-1"><path d="M0,256v-256h256v256zM229.85714,195.71429h-4.57143v-4.57143c0,-10.08457 -8.20114,-18.28571 -18.28571,-18.28571c-10.08457,0 -18.28571,8.20114 -18.28571,18.28571v4.57143h-4.57143c-10.08457,0 -18.28571,8.20114 -18.28571,18.28571c0,10.08457 8.20114,18.28571 18.28571,18.28571h4.57143v4.57143c0,10.08457 8.20114,18.28571 18.28571,18.28571c10.08457,0 18.28571,-8.20114 18.28571,-18.28571v-4.57143h4.57143c10.08457,0 18.28571,-8.20114 18.28571,-18.28571c0,-10.08457 -8.20114,-18.28571 -18.28571,-18.28571z" id="overlayBgMask" fill="none"></path></clipPath></defs><g clip-path="url(#clip-1)" fill="none" fill-rule="nonzero" stroke="none" stroke-width="1" stroke-linecap="butt" stroke-linejoin="miter" stroke-miterlimit="10" stroke-dasharray="" stroke-dashoffset="0" font-family="none" font-weight="none" font-size="none" text-anchor="none" style="mix-blend-mode: normal"><g transform="scale(10.66667,10.66667)" fill="#000000"><path d="M6.00977,2c-1.09545,0 -2,0.9026 -2,1.99805l-0.00977,18.00195l8,-3l8,3v-1.44336v-16.55664c0,-1.09306 -0.90694,-2 -2,-2zM6.00977,4h11.99023v15.11328l-6,-2.25l-5.99805,2.25z"></path></g></g><g fill="#000000" fill-rule="nonzero" stroke="none" stroke-width="1" stroke-linecap="butt" stroke-linejoin="miter" stroke-miterlimit="10" stroke-dasharray="" stroke-dashoffset="0" font-family="none" font-weight="none" font-size="none" text-anchor="none" style="mix-blend-mode: normal"><g transform="translate(175,182) scale(4.57143,4.57143)" id="overlay"><path d="M14,7c0,1.105 -0.895,2 -2,2h-3v3c0,1.105 -0.895,2 -2,2c-1.105,0 -2,-0.895 -2,-2v-3h-3c-1.105,0 -2,-0.895 -2,-2c0,-1.105 0.895,-2 2,-2h3v-3c0,-1.105 0.895,-2 2,-2c1.105,0 2,0.895 2,2v3h3c1.105,0 2,0.895 2,2z"></path></g></g></svg>