<svg xmlns="http://www.w3.org/2000/svg" xmlns:xlink="http://www.w3.org/1999/xlink" viewBox="0,0,256,256" width="24px" height="24px"><defs><clipPath id="clip-1"><path d="M0,256v-256h256v256h-39.02579c5.52767,-3.37472 9.22579,-9.46425 9.22579,-16.4v-6.4h6.4c10.5856,0 19.2,-8.6144 19.2,-19.2c0,-10.5856 -8.6144,-19.2 -19.2,-19.2h-6.4v-6.4c0,-10.5856 -8.6144,-19.2 -19.2,-19.2c-10.5856,0 -19.2,8.6144 -19.2,19.2v6.4h-6.4c-10.5856,0 -19.2,8.6144 -19.2,19.2c0,10.5856 8.6144,19.2 19.2,19.2h6.4v6.4c0,6.93575 3.69812,13.02528 9.22579,16.4z" id="overlayBgMask" fill="none"></path></clipPath></defs><g clip-path="url(#clip-1)" fill="none" fill-rule="nonzero" stroke="none" stroke-width="1" stroke-linecap="butt" stroke-linejoin="miter" stroke-miterlimit="10" stroke-dasharray="" stroke-dashoffset="0" font-family="none" font-weight="none" font-size="none" text-anchor="none" style="mix-blend-mode: normal"><g transform="scale(10.66667,10.66667)" fill="#000000"><path d="M6,2c-0.13812,0 -0.27212,0.01438 -0.40234,0.04102c-0.91157,0.18642 -1.59766,0.99211 -1.59766,1.95898v18l8,-3l8,3v-18c0,-0.1375 -0.01426,-0.27246 -0.04102,-0.40234c-0.15978,-0.78135 -0.77529,-1.39686 -1.55664,-1.55664c-0.13022,-0.02663 -0.26422,-0.04102 -0.40234,-0.04102z"></path></g></g><g fill="#000000" fill-rule="nonzero" stroke="none" stroke-width="1" stroke-linecap="butt" stroke-linejoin="miter" stroke-miterlimit="10" stroke-dasharray="" stroke-dashoffset="0" font-family="none" font-weight="none" font-size="none" text-anchor="none" style="mix-blend-mode: normal"><g transform="translate(175,182) scale(6.4,6.4)" id="overlay"><path d="M10,5c0,0.552 -0.448,1 -1,1h-3v3c0,0.552 -0.448,1 -1,1c-0.552,0 -1,-0.448 -1,-1v-3h-3c-0.552,0 -1,-0.448 -1,-1c0,-0.552 0.448,-1 1,-1h3v-3c0,-0.552 0.448,-1 1,-1c0.552,0 1,0.448 1,1v3h3c0.552,0 1,0.448 1,1z"></path></g></g></svg>